<svg xmlns="http://www.w3.org/2000/svg" viewBox="0 0 512 512" width="64" height="64">
	<path fill="#666" d="M.8 304.8c0-45.4.3-90.8-.2-136.2-.1-9.7 2.5-17.1 9.2-23.8C55.8 99 101.6 53 147.6 7.2c5-5 10.7-7.3 18.3-7.2 60.3.4 120.6-.2 180.9.9 14.4.3 28.1 7.5 39.3 17.4 14.3 12.7 22.5 28.4 22.6 47.9.2 37.5.7 74.9 1 112.4 0 1.3-1.8 2.5-1.8 2.5s-2.4-.4-2.8-1.6c-4.1-13.4-13.4-22.7-23.9-31.2-2.3-1.9-4.3-5.7-4.3-8.6-.4-24.1-.2-48.3-.6-72.4-.2-11.7-15.2-31-30.7-31-56.1 0-112.2-1-168.3-1.6-5.1-.1-6.4 2.6-6.4 7.2.1 30.8 0 61.7.1 92.5 0 20.7-15.4 36.1-36.3 36-30.7-.1-61.3 0-92-.1-5.6 0-7.5 2.2-7.5 7.7.1 85.8 0 171.6.1 257.4 0 13.7 3.1 26.2 15.2 35 8 5.9 17.2 7 26.4 7 63 .3 126.1.2 189.1 0 7.3 0 9.2 2.9 10.1 9.6.9 6.5 1.4 8.1 3.5 14.5.5 1.5 3.9 6.9 4 9.3-.6 1.4-3 1.3-4.5 1.3-41.4.1-82.9.1-124.3.1-29.5 0-58.9.3-88.4-.5-14-.4-26.3-7-37.3-15.2-12.2-9.2-19-21.8-24.6-36.1-3.7-9.3-3.4-18-3.5-26.9-.4-43-.2-85.9-.2-128.7z"/>
	<path stroke="#1d83d4" stroke-width="64" stroke-linecap="round" d="M340 200v280M200 340h280"/>
</svg>
